<svg xmlns="http://www.w3.org/2000/svg" viewBox="0 0 184.25 184.25"><defs><style>.cls-1{fill:#144a7f;}.cls-2{fill:#ffffff;}</style></defs><title>logo_ENI_gd</title><g id="Calque_2" data-name="Calque 2"><g id="Calque_1-2" data-name="Calque 1"><path class="cls-2" d="M96.53,124.4s1.88.34-.09,1.18c0,0-22.89,8.37-41.28,3.22,0,0-37-7.73-24.53-44.15,0,0,9.57-27.47,48.56-43.23,0,0,29.68-12.69,55.19-4,0,0,23.72,7.54,21.7,30.9,0,0-.92,21.89-26.85,35.69,0,0-10.95,6.34-10.49-.74l2.58-21.34s1.56-4.87-3.5-2.39c0,0-2.3,1.29-1.84-.55,0,0,0-.27,1.2-.74l9-2.57s2.58-1,2,2.85l-2.48,20.42s-1.1,4.75,2.21,3.31h0c10.57-3.31,18.39-16.09,18.39-16.09,11.41-19.87,2.94-32.75,2.94-32.75-10.48-17.47-36.05-16.74-36.05-16.74-37.34,0-59.6,22.26-59.6,22.26-29.24,25.57-20,47.09-20,47.09,12.7,32.93,62.49,18.45,62.49,18.45Z"/><path class="cls-2" d="M49,92.48c-.06-4.38,3.11-14.16,8.45-14.16,2.1,0,2.5,1.68,2.5,3.37a15.18,15.18,0,0,1-.4,3.51Zm15.46,6.87c-2.49,2.16-5.93,5-9.37,5-5.21,0-6.15-5.4-6.09-9.51,6.76-4.66,13.1-8.57,18.76-13.35a11.74,11.74,0,0,0,.2-1.55c0-.21-.07-.41-.34-.41-.54,0,0,.34-2.43,1.82V80.14c0-3.29-2.21-4-5.17-4-10.74,0-18.37,9.89-18.37,20.08,0,6.4,2.7,11.19,9.72,11.19a19.11,19.11,0,0,0,14-6.61Z"/><path class="cls-2" d="M74.86,79.28A33,33,0,0,1,86.4,75.86c.74,0,1,.14,1,1.34,0,2.55-.68,5.79-1.15,11.45l.14.13c2.29-5.39,6.88-12.92,12.87-12.92,3.42,0,4.43,3.42,4.43,6.25s-2,17.4-1.94,18.73c0,.47,0,2.08.8,2.08s3.65-1.48,4.59-2l.54,1.55c-2.63,2.21-9,4.16-11.4,4.16-1.41,0-1.41-2.69-1.41-3.49,0-4.43,2.35-15.1,2.38-20.26,0-1.15-.34-2.37-1.82-2.37-2.7,0-5.06,3.93-6.08,5.83-3.37,6.14-4,9.71-5.39,19.46H77.43c1.07-8,3.1-21,3.1-24.14,0-1.22,0-2.29-1-2.29s-3.1,1-4.18,1.47Z"/><path class="cls-2" d="M122.05,68.21a5,5,0,0,1,4.64-4.72,2.76,2.76,0,0,1,2.76,2.9c0,2.29-2,4.72-4.37,4.72A2.83,2.83,0,0,1,122.05,68.21Z"/><rect class="cls-2" x="36.26" y="155.78" width="112.14" height="1.94"/></g></g></svg>